<svg width="18" height="20" viewBox="0 0 18 20" fill="none" xmlns="http://www.w3.org/2000/svg">
<path d="M8.94375 0.229323C9.0668 0.0611115 9.26016 -0.02495 9.45352 0.00634508C11.1023 0.252794 12.375 1.82537 12.375 3.72655C12.375 4.16468 12.3082 4.58716 12.1816 4.97835H12.375C13.616 4.97835 14.625 6.10107 14.625 7.48196C14.625 8.22913 14.3297 8.90198 13.8621 9.35967H14.3438C15.743 9.35967 16.875 10.6193 16.875 12.1762C16.875 13.0838 16.4883 13.8896 15.8906 14.406C17.0895 14.629 18 15.7869 18 17.1834C18 18.7404 16.868 20 15.4688 20H2.53125C1.13203 20 0 18.7404 0 17.1834C0 15.7869 0.910547 14.629 2.10938 14.406C1.51172 13.8896 1.125 13.0838 1.125 12.1762C1.125 10.6193 2.25703 9.35967 3.65625 9.35967H4.13789C3.67031 8.90198 3.375 8.22913 3.375 7.48196C3.375 6.10107 4.38398 4.97835 5.625 4.97835H6.19453C7.74492 4.97444 9 3.57399 9 1.84884C9 1.48895 8.94727 1.14862 8.84883 0.827841C8.78555 0.624423 8.8207 0.393622 8.94727 0.225411L8.94375 0.229323Z" fill="#D27C2C"/>
</svg>
