<svg width="23" height="29" viewBox="0 0 23 29" fill="none" xmlns="http://www.w3.org/2000/svg">
<path d="M10.7812 28.75V22.0656C10.0625 23.1869 8.625 24.5669 5.79312 25.6019C5.79312 25.6019 6.51187 23.1438 8.53875 21.4906C6.67 21.8931 3.8525 21.8356 0 20.125C0 20.125 3.55062 18.0981 7.59 18.6444C5.30437 17.25 2.44375 14.49 0.244375 8.78312C0.244375 8.78312 6.71312 10.5513 9.93312 16.0138C7.015 8.97 11.5 0 11.5 0C14.9931 7.86313 14.2456 13.0813 13.11 15.9563C16.3444 10.5369 22.7556 8.78312 22.7556 8.78312C20.5562 14.49 17.6956 17.25 15.41 18.6444C19.4494 18.0981 23 20.125 23 20.125C19.1475 21.8356 16.33 21.8931 14.4613 21.4906C16.4881 23.1438 17.2069 25.6019 17.2069 25.6019C14.375 24.5669 12.9375 23.1869 12.2188 22.0656V28.75H10.7812Z" fill="#4ECB71"/>
</svg>
