<svg width="26" height="27" viewBox="0 0 26 27" fill="none" xmlns="http://www.w3.org/2000/svg">
<path d="M11.1696 0.607551C11.6888 0.214314 12.3344 0 13 0C13.6656 0 14.3112 0.214314 14.8304 0.607551L24.9054 8.23943C25.247 8.4982 25.5227 8.82609 25.7122 9.19892C25.9016 9.57174 26 9.97998 26 10.3935V24.2384C26 24.9708 25.6918 25.6732 25.1433 26.1911C24.5947 26.709 23.8508 27 23.075 27H19.175C18.3992 27 17.6553 26.709 17.1067 26.1911C16.5582 25.6732 16.25 24.9708 16.25 24.2384V16.8741C16.25 16.6299 16.1473 16.3958 15.9644 16.2232C15.7816 16.0505 15.5336 15.9535 15.275 15.9535H10.725C10.4664 15.9535 10.2184 16.0505 10.0356 16.2232C9.85272 16.3958 9.75 16.6299 9.75 16.8741V24.2384C9.75 24.9708 9.44183 25.6732 8.89329 26.1911C8.34474 26.709 7.60076 27 6.825 27H2.925C2.14947 27 1.40568 26.7092 0.857172 26.1916C0.308666 25.6739 0.000344681 24.9718 0 24.2396V10.3947C0 9.55764 0.403 8.76475 1.0946 8.24066L11.1696 0.607551ZM13.6097 2.04359C13.4367 1.91272 13.2217 1.8414 13 1.8414C12.7783 1.8414 12.5633 1.91272 12.3903 2.04359L2.3153 9.67547C2.20135 9.76168 2.10936 9.87097 2.04613 9.99524C1.9829 10.1195 1.95005 10.2556 1.95 10.3935V24.2384C1.95 24.7477 2.3868 25.1589 2.925 25.1589H6.825C7.08359 25.1589 7.33158 25.0619 7.51443 24.8893C7.69728 24.7167 7.8 24.4825 7.8 24.2384V16.8741C7.8 16.1417 8.10817 15.4392 8.65671 14.9213C9.20526 14.4034 9.94924 14.1125 10.725 14.1125H15.275C16.0508 14.1125 16.7947 14.4034 17.3433 14.9213C17.8918 15.4392 18.2 16.1417 18.2 16.8741V24.2384C18.2 24.7477 18.6368 25.1589 19.175 25.1589H23.075C23.3336 25.1589 23.5816 25.0619 23.7644 24.8893C23.9473 24.7167 24.05 24.4825 24.05 24.2384V10.3935C24.0501 10.2557 24.0175 10.1197 23.9545 9.99541C23.8915 9.87114 23.7997 9.76181 23.686 9.67547L13.6097 2.04359Z" fill="#D99BFF"/>
</svg>
