<svg width="36" height="36" viewBox="0 0 36 36" fill="none" xmlns="http://www.w3.org/2000/svg">
<path fill-rule="evenodd" clip-rule="evenodd" d="M31.5 19.389C31.506 15.0795 30.315 10.386 27.9712 4.5H8.02875C5.68425 10.386 4.494 15.0795 4.5 19.389C4.506 23.5995 5.6535 27.384 7.878 31.5H28.122C30.3465 27.3833 31.494 23.5995 31.5 19.389ZM17.3572 31.5V23.6595L12.0908 18.1298L12.9998 17.175L17.25 21.6375V19.5C17.25 19.3011 17.329 19.1103 17.4697 18.9697C17.6103 18.829 17.8011 18.75 18 18.75C18.1989 18.75 18.3897 18.829 18.5303 18.9697C18.671 19.1103 18.75 19.3011 18.75 19.5V21.6382L23.0002 17.1757L23.9092 18.1298L18.6435 23.6595V31.5H17.3572Z" fill="#D99BFF"/>
</svg>
