<svg width="36" height="36" viewBox="0 0 36 36" fill="none" xmlns="http://www.w3.org/2000/svg">
<path d="M29.434 0H31.294C34.421 7.848 36.008 14.106 36 19.852C35.992 25.466 34.462 30.512 31.496 36H29.514C32.706 30.342 34.278 25.365 34.286 19.849C34.293 14.288 32.71 8.09 29.434 0ZM4.70503 0H6.56503C3.28803 8.09 1.70703 14.288 1.71503 19.849C1.72203 25.365 3.29403 30.342 6.48603 36H4.50403C1.53803 30.511 0.0080301 25.466 3.00949e-05 19.852C-0.00796991 14.106 1.57903 7.848 4.70503 0ZM17.143 25.546V36H18.857V25.546L25.879 18.173L24.667 16.9L18 23.9L11.333 16.9L10.121 18.173L17.143 25.546Z" fill="#D99BFF"/>
<path d="M17 20V23C17 23.2652 17.1054 23.5196 17.2929 23.7071C17.4805 23.8946 17.7348 24 18 24C18.2652 24 18.5196 23.8946 18.7071 23.7071C18.8947 23.5196 19 23.2652 19 23V20C19 19.7348 18.8947 19.4804 18.7071 19.2929C18.5196 19.1054 18.2652 19 18 19C17.7348 19 17.4805 19.1054 17.2929 19.2929C17.1054 19.4804 17 19.7348 17 20Z" fill="#D99BFF"/>
</svg>
